{
    "asset" : {
        "generator" : "Khronos glTF Blender I/O v1.3.48",
        "version" : "2.0"
    },
    "scene" : 0,
    "scenes" : [
        {
            "name" : "Scene",
            "nodes" : [
                0,
                1,
                2,
                3,
                4,
                5,
                6,
                7,
                8,
                9,
                10,
                11,
                12,
                13
            ]
        }
    ],
    "nodes" : [
        {
            "mesh" : 0,
            "name" : "Cube",
            "scale" : [
                3.644871711730957,
                2.08918833732605,
                1.751908779144287
            ],
            "translation" : [
                0,
                1.3035800457000732,
                0
            ]
        },
        {
            "name" : "Camera",
            "rotation" : [
                0.483536034822464,
                0.33687159419059753,
                -0.20870360732078552,
                0.7804827094078064
            ],
            "translation" : [
                7.358891487121582,
                0.4331378936767578,
                11.080819129943848
            ]
        },
        {
            "mesh" : 1,
            "name" : "Cubo.002",
            "scale" : [
                0.5,
                0.05000000074505806,
                1
            ],
            "translation" : [
                -14.888423919677734,
                1.9424724578857422,
                11.266806602478027
            ]
        },
        {
            "mesh" : 2,
            "name" : "Cubo.003",
            "scale" : [
                0.5,
                0.05000000074505806,
                1
            ],
            "translation" : [
                -14.762772560119629,
                1.2596442699432373,
                -10.075695991516113
            ]
        },
        {
            "mesh" : 3,
            "name" : "Cubo.004",
            "scale" : [
                0.5,
                0.05000000074505806,
                1
            ],
            "translation" : [
                -14.790738105773926,
                -0.27143728733062744,
                -7.877202987670898
            ]
        },
        {
            "mesh" : 4,
            "name" : "Cubo.007",
            "scale" : [
                0.5,
                0.05000000074505806,
                1
            ],
            "translation" : [
                -14.975631713867188,
                2.7500760555267334,
                -12.548262596130371
            ]
        },
        {
            "mesh" : 5,
            "name" : "Cubo.006",
            "scale" : [
                0.5,
                0.05000000074505806,
                1
            ],
            "translation" : [
                -14.809531211853027,
                0.5490090250968933,
                9.17601203918457
            ]
        },
        {
            "mesh" : 6,
            "name" : "Cubo.005",
            "scale" : [
                0.5,
                0.05000000074505806,
                1
            ],
            "translation" : [
                -14.810250282287598,
                -0.5488666296005249,
                7.254973411560059
            ]
        },
        {
            "mesh" : 7,
            "name" : "Cubo.008",
            "scale" : [
                7.5,
                1.5,
                2.5
            ],
            "translation" : [
                2.098691940307617,
                -5.187168121337891,
                -0.6214375495910645
            ]
        },
        {
            "mesh" : 8,
            "name" : "Cubo.001",
            "scale" : [
                -14.5,
                -1.5,
                -2
            ],
            "translation" : [
                -0.8495349287986755,
                -4.366842746734619,
                -13.267545700073242
            ]
        },
        {
            "mesh" : 9,
            "name" : "Cubo.009",
            "scale" : [
                -14.5,
                -1.5,
                -2
            ],
            "translation" : [
                -0.3943997621536255,
                -4.366842746734619,
                12.12948226928711
            ]
        },
        {
            "mesh" : 10,
            "name" : "Cubo.010",
            "scale" : [
                0.5,
                0.05000000074505806,
                1
            ],
            "translation" : [
                -14.676264762878418,
                -1.2370951175689697,
                4.598718643188477
            ]
        },
        {
            "mesh" : 11,
            "name" : "Cubo.011",
            "scale" : [
                0.5,
                0.05000000074505806,
                1
            ],
            "translation" : [
                -14.810250282287598,
                -1.3418662548065186,
                -4.468559741973877
            ]
        },
        {
            "name" : "Punto"
        }
    ],
    "meshes" : [
        {
            "name" : "Cube",
            "primitives" : [
                {
                    "attributes" : {
                        "POSITION" : 0,
                        "NORMAL" : 1,
                        "TEXCOORD_0" : 2
                    },
                    "indices" : 3
                }
            ]
        },
        {
            "name" : "Cubo.002",
            "primitives" : [
                {
                    "attributes" : {
                        "POSITION" : 4,
                        "NORMAL" : 5,
                        "TEXCOORD_0" : 6
                    },
                    "indices" : 7
                }
            ]
        },
        {
            "name" : "Cubo.003",
            "primitives" : [
                {
                    "attributes" : {
                        "POSITION" : 8,
                        "NORMAL" : 9,
                        "TEXCOORD_0" : 10
                    },
                    "indices" : 7
                }
            ]
        },
        {
            "name" : "Cubo.004",
            "primitives" : [
                {
                    "attributes" : {
                        "POSITION" : 11,
                        "NORMAL" : 12,
                        "TEXCOORD_0" : 13
                    },
                    "indices" : 7
                }
            ]
        },
        {
            "name" : "Cubo.007",
            "primitives" : [
                {
                    "attributes" : {
                        "POSITION" : 14,
                        "NORMAL" : 15,
                        "TEXCOORD_0" : 16
                    },
                    "indices" : 7
                }
            ]
        },
        {
            "name" : "Cubo.006",
            "primitives" : [
                {
                    "attributes" : {
                        "POSITION" : 17,
                        "NORMAL" : 18,
                        "TEXCOORD_0" : 19
                    },
                    "indices" : 7
                }
            ]
        },
        {
            "name" : "Cubo.005",
            "primitives" : [
                {
                    "attributes" : {
                        "POSITION" : 20,
                        "NORMAL" : 21,
                        "TEXCOORD_0" : 22
                    },
                    "indices" : 7
                }
            ]
        },
        {
            "name" : "Cubo.008",
            "primitives" : [
                {
                    "attributes" : {
                        "POSITION" : 23,
                        "NORMAL" : 24,
                        "TEXCOORD_0" : 25
                    },
                    "indices" : 26
                }
            ]
        },
        {
            "name" : "Cubo.009",
            "primitives" : [
                {
                    "attributes" : {
                        "POSITION" : 27,
                        "NORMAL" : 28,
                        "TEXCOORD_0" : 29
                    },
                    "indices" : 30
                }
            ]
        },
        {
            "name" : "Cubo.011",
            "primitives" : [
                {
                    "attributes" : {
                        "POSITION" : 31,
                        "NORMAL" : 32,
                        "TEXCOORD_0" : 33
                    },
                    "indices" : 30
                }
            ]
        },
        {
            "name" : "Cubo.012",
            "primitives" : [
                {
                    "attributes" : {
                        "POSITION" : 34,
                        "NORMAL" : 35,
                        "TEXCOORD_0" : 36
                    },
                    "indices" : 7
                }
            ]
        },
        {
            "name" : "Cubo.013",
            "primitives" : [
                {
                    "attributes" : {
                        "POSITION" : 37,
                        "NORMAL" : 38,
                        "TEXCOORD_0" : 39
                    },
                    "indices" : 7
                }
            ]
        }
    ],
    "accessors" : [
        {
            "bufferView" : 0,
            "componentType" : 5126,
            "count" : 92,
            "max" : [
                3.9793002605438232,
                3.793182611465454,
                8.166816711425781
            ],
            "min" : [
                -4.251441955566406,
                -3.386638879776001,
                -8.957364082336426
            ],
            "type" : "VEC3"
        },
        {
            "bufferView" : 1,
            "componentType" : 5126,
            "count" : 92,
            "type" : "VEC3"
        },
        {
            "bufferView" : 2,
            "componentType" : 5126,
            "count" : 92,
            "type" : "VEC2"
        },
        {
            "bufferView" : 3,
            "componentType" : 5123,
            "count" : 159,
            "type" : "SCALAR"
        },
        {
            "bufferView" : 4,
            "componentType" : 5126,
            "count" : 24,
            "max" : [
                1,
                1,
                1
            ],
            "min" : [
                -1,
                -1,
                -1
            ],
            "type" : "VEC3"
        },
        {
            "bufferView" : 5,
            "componentType" : 5126,
            "count" : 24,
            "type" : "VEC3"
        },
        {
            "bufferView" : 6,
            "componentType" : 5126,
            "count" : 24,
            "type" : "VEC2"
        },
        {
            "bufferView" : 7,
            "componentType" : 5123,
            "count" : 36,
            "type" : "SCALAR"
        },
        {
            "bufferView" : 8,
            "componentType" : 5126,
            "count" : 24,
            "max" : [
                1,
                1,
                1
            ],
            "min" : [
                -1,
                -1,
                -1
            ],
            "type" : "VEC3"
        },
        {
            "bufferView" : 9,
            "componentType" : 5126,
            "count" : 24,
            "type" : "VEC3"
        },
        {
            "bufferView" : 10,
            "componentType" : 5126,
            "count" : 24,
            "type" : "VEC2"
        },
        {
            "bufferView" : 11,
            "componentType" : 5126,
            "count" : 24,
            "max" : [
                1,
                1,
                1
            ],
            "min" : [
                -1,
                -1,
                -1
            ],
            "type" : "VEC3"
        },
        {
            "bufferView" : 12,
            "componentType" : 5126,
            "count" : 24,
            "type" : "VEC3"
        },
        {
            "bufferView" : 13,
            "componentType" : 5126,
            "count" : 24,
            "type" : "VEC2"
        },
        {
            "bufferView" : 14,
            "componentType" : 5126,
            "count" : 24,
            "max" : [
                1,
                1,
                1
            ],
            "min" : [
                -1,
                -1,
                -1
            ],
            "type" : "VEC3"
        },
        {
            "bufferView" : 15,
            "componentType" : 5126,
            "count" : 24,
            "type" : "VEC3"
        },
        {
            "bufferView" : 16,
            "componentType" : 5126,
            "count" : 24,
            "type" : "VEC2"
        },
        {
            "bufferView" : 17,
            "componentType" : 5126,
            "count" : 24,
            "max" : [
                1,
                1,
                1
            ],
            "min" : [
                -1,
                -1,
                -1
            ],
            "type" : "VEC3"
        },
        {
            "bufferView" : 18,
            "componentType" : 5126,
            "count" : 24,
            "type" : "VEC3"
        },
        {
            "bufferView" : 19,
            "componentType" : 5126,
            "count" : 24,
            "type" : "VEC2"
        },
        {
            "bufferView" : 20,
            "componentType" : 5126,
            "count" : 24,
            "max" : [
                1,
                1,
                1
            ],
            "min" : [
                -1,
                -1,
                -1
            ],
            "type" : "VEC3"
        },
        {
            "bufferView" : 21,
            "componentType" : 5126,
            "count" : 24,
            "type" : "VEC3"
        },
        {
            "bufferView" : 22,
            "componentType" : 5126,
            "count" : 24,
            "type" : "VEC2"
        },
        {
            "bufferView" : 23,
            "componentType" : 5126,
            "count" : 36,
            "max" : [
                1,
                1,
                1
            ],
            "min" : [
                -1,
                -1,
                -1
            ],
            "type" : "VEC3"
        },
        {
            "bufferView" : 24,
            "componentType" : 5126,
            "count" : 36,
            "type" : "VEC3"
        },
        {
            "bufferView" : 25,
            "componentType" : 5126,
            "count" : 36,
            "type" : "VEC2"
        },
        {
            "bufferView" : 26,
            "componentType" : 5123,
            "count" : 78,
            "type" : "SCALAR"
        },
        {
            "bufferView" : 27,
            "componentType" : 5126,
            "count" : 28,
            "max" : [
                1,
                1,
                1
            ],
            "min" : [
                -1,
                -1,
                -1
            ],
            "type" : "VEC3"
        },
        {
            "bufferView" : 28,
            "componentType" : 5126,
            "count" : 28,
            "type" : "VEC3"
        },
        {
            "bufferView" : 29,
            "componentType" : 5126,
            "count" : 28,
            "type" : "VEC2"
        },
        {
            "bufferView" : 30,
            "componentType" : 5123,
            "count" : 60,
            "type" : "SCALAR"
        },
        {
            "bufferView" : 31,
            "componentType" : 5126,
            "count" : 28,
            "max" : [
                1,
                1,
                1
            ],
            "min" : [
                -1,
                -1,
                -1
            ],
            "type" : "VEC3"
        },
        {
            "bufferView" : 32,
            "componentType" : 5126,
            "count" : 28,
            "type" : "VEC3"
        },
        {
            "bufferView" : 33,
            "componentType" : 5126,
            "count" : 28,
            "type" : "VEC2"
        },
        {
            "bufferView" : 34,
            "componentType" : 5126,
            "count" : 24,
            "max" : [
                1,
                1,
                1
            ],
            "min" : [
                -1,
                -1,
                -1
            ],
            "type" : "VEC3"
        },
        {
            "bufferView" : 35,
            "componentType" : 5126,
            "count" : 24,
            "type" : "VEC3"
        },
        {
            "bufferView" : 36,
            "componentType" : 5126,
            "count" : 24,
            "type" : "VEC2"
        },
        {
            "bufferView" : 37,
            "componentType" : 5126,
            "count" : 24,
            "max" : [
                1,
                1,
                1
            ],
            "min" : [
                -1,
                -1,
                -1
            ],
            "type" : "VEC3"
        },
        {
            "bufferView" : 38,
            "componentType" : 5126,
            "count" : 24,
            "type" : "VEC3"
        },
        {
            "bufferView" : 39,
            "componentType" : 5126,
            "count" : 24,
            "type" : "VEC2"
        }
    ],
    "bufferViews" : [
        {
            "buffer" : 0,
            "byteLength" : 1104,
            "byteOffset" : 0
        },
        {
            "buffer" : 0,
            "byteLength" : 1104,
            "byteOffset" : 1104
        },
        {
            "buffer" : 0,
            "byteLength" : 736,
            "byteOffset" : 2208
        },
        {
            "buffer" : 0,
            "byteLength" : 318,
            "byteOffset" : 2944
        },
        {
            "buffer" : 0,
            "byteLength" : 288,
            "byteOffset" : 3264
        },
        {
            "buffer" : 0,
            "byteLength" : 288,
            "byteOffset" : 3552
        },
        {
            "buffer" : 0,
            "byteLength" : 192,
            "byteOffset" : 3840
        },
        {
            "buffer" : 0,
            "byteLength" : 72,
            "byteOffset" : 4032
        },
        {
            "buffer" : 0,
            "byteLength" : 288,
            "byteOffset" : 4104
        },
        {
            "buffer" : 0,
            "byteLength" : 288,
            "byteOffset" : 4392
        },
        {
            "buffer" : 0,
            "byteLength" : 192,
            "byteOffset" : 4680
        },
        {
            "buffer" : 0,
            "byteLength" : 288,
            "byteOffset" : 4872
        },
        {
            "buffer" : 0,
            "byteLength" : 288,
            "byteOffset" : 5160
        },
        {
            "buffer" : 0,
            "byteLength" : 192,
            "byteOffset" : 5448
        },
        {
            "buffer" : 0,
            "byteLength" : 288,
            "byteOffset" : 5640
        },
        {
            "buffer" : 0,
            "byteLength" : 288,
            "byteOffset" : 5928
        },
        {
            "buffer" : 0,
            "byteLength" : 192,
            "byteOffset" : 6216
        },
        {
            "buffer" : 0,
            "byteLength" : 288,
            "byteOffset" : 6408
        },
        {
            "buffer" : 0,
            "byteLength" : 288,
            "byteOffset" : 6696
        },
        {
            "buffer" : 0,
            "byteLength" : 192,
            "byteOffset" : 6984
        },
        {
            "buffer" : 0,
            "byteLength" : 288,
            "byteOffset" : 7176
        },
        {
            "buffer" : 0,
            "byteLength" : 288,
            "byteOffset" : 7464
        },
        {
            "buffer" : 0,
            "byteLength" : 192,
            "byteOffset" : 7752
        },
        {
            "buffer" : 0,
            "byteLength" : 432,
            "byteOffset" : 7944
        },
        {
            "buffer" : 0,
            "byteLength" : 432,
            "byteOffset" : 8376
        },
        {
            "buffer" : 0,
            "byteLength" : 288,
            "byteOffset" : 8808
        },
        {
            "buffer" : 0,
            "byteLength" : 156,
            "byteOffset" : 9096
        },
        {
            "buffer" : 0,
            "byteLength" : 336,
            "byteOffset" : 9252
        },
        {
            "buffer" : 0,
            "byteLength" : 336,
            "byteOffset" : 9588
        },
        {
            "buffer" : 0,
            "byteLength" : 224,
            "byteOffset" : 9924
        },
        {
            "buffer" : 0,
            "byteLength" : 120,
            "byteOffset" : 10148
        },
        {
            "buffer" : 0,
            "byteLength" : 336,
            "byteOffset" : 10268
        },
        {
            "buffer" : 0,
            "byteLength" : 336,
            "byteOffset" : 10604
        },
        {
            "buffer" : 0,
            "byteLength" : 224,
            "byteOffset" : 10940
        },
        {
            "buffer" : 0,
            "byteLength" : 288,
            "byteOffset" : 11164
        },
        {
            "buffer" : 0,
            "byteLength" : 288,
            "byteOffset" : 11452
        },
        {
            "buffer" : 0,
            "byteLength" : 192,
            "byteOffset" : 11740
        },
        {
            "buffer" : 0,
            "byteLength" : 288,
            "byteOffset" : 11932
        },
        {
            "buffer" : 0,
            "byteLength" : 288,
            "byteOffset" : 12220
        },
        {
            "buffer" : 0,
            "byteLength" : 192,
            "byteOffset" : 12508
        }
    ],
    "buffers" : [
        {
            "byteLength" : 12700,
            "uri" : "data:application/octet-stream;base64,"
        }
    ]
}
