{
  "accessors": [
    {
      "bufferView": 2,
      "componentType": 5126,
      "count": 65532,
      "max": [
        -40.786224365234375,
        -237.98222351074219,
        -76.986572265625
      ],
      "min": [
        -229.18644714355469,
        -367.87051391601562,
        -126.75442504882812
      ],
      "type": "VEC3"
    },
    {
      "bufferView": 2,
      "byteOffset": 786384,
      "componentType": 5126,
      "count": 65532,
      "max": [
        0.99997514486312866,
        0.99998432397842407,
        0.99999809265136719
      ],
      "min": [
        -0.99961847066879272,
        -0.99977117776870728,
        -0.99999099969863892
      ],
      "type": "VEC3"
    },
    {
      "bufferView": 1,
      "componentType": 5126,
      "count": 65532,
      "max": [
        0.93449997901916504,
        0.98827999830245972
      ],
      "min": [
        0.011710000224411488,
        0.011710000224411488
      ],
      "type": "VEC2"
    },
    {
      "bufferView": 0,
      "componentType": 5125,
      "count": 319074,
      "max": [
        65531
      ],
      "min": [
        0
      ],
      "type": "SCALAR"
    },
    {
      "bufferView": 2,
      "byteOffset": 1572768,
      "componentType": 5126,
      "count": 65532,
      "max": [
        -41.022346496582031,
        -237.94929504394531,
        -76.650375366210938
      ],
      "min": [
        -227.24732971191406,
        -368.24374389648438,
        -126.75483703613281
      ],
      "type": "VEC3"
    },
    {
      "bufferView": 2,
      "byteOffset": 2359152,
      "componentType": 5126,
      "count": 65532,
      "max": [
        0.97126412391662598,
        0.99993830919265747,
        0.99999910593032837
      ],
      "min": [
        -0.99268215894699097,
        -0.99997597932815552,
        -0.9999997615814209
      ],
      "type": "VEC3"
    },
    {
      "bufferView": 1,
      "byteOffset": 524256,
      "componentType": 5126,
      "count": 65532,
      "max": [
        0.86079001426696777,
        0.93046998977661133
      ],
      "min": [
        0.018820000812411308,
        0.011780000291764736
      ],
      "type": "VEC2"
    },
    {
      "bufferView": 0,
      "byteOffset": 1276296,
      "componentType": 5125,
      "count": 323214,
      "max": [
        65531
      ],
      "min": [
        0
      ],
      "type": "SCALAR"
    },
    {
      "bufferView": 2,
      "byteOffset": 3145536,
      "componentType": 5126,
      "count": 65533,
      "max": [
        -40.875705718994141,
        -237.94969177246094,
        -76.650375366210938
      ],
      "min": [
        -228.98616027832031,
        -368.24374389648438,
        -126.72576141357422
      ],
      "type": "VEC3"
    },
    {
      "bufferView": 2,
      "byteOffset": 3931932,
      "componentType": 5126,
      "count": 65533,
      "max": [
        0.9999428391456604,
        0.99964743852615356,
        0.99999910593032837
      ],
      "min": [
        -0.99961847066879272,
        -0.99983876943588257,
        -0.99999451637268066
      ],
      "type": "VEC3"
    },
    {
      "bufferView": 1,
      "byteOffset": 1048512,
      "componentType": 5126,
      "count": 65533,
      "max": [
        0.93449002504348755,
        0.98646998405456543
      ],
      "min": [
        0.012009999714791775,
        0.011739999987185001
      ],
      "type": "VEC2"
    },
    {
      "bufferView": 0,
      "byteOffset": 2569152,
      "componentType": 5125,
      "count": 256902,
      "max": [
        65532
      ],
      "min": [
        0
      ],
      "type": "SCALAR"
    },
    {
      "bufferView": 2,
      "byteOffset": 4718328,
      "componentType": 5126,
      "count": 651,
      "max": [
        -47.933212280273438,
        -240.88299560546875,
        -76.876411437988281
      ],
      "min": [
        -219.44831848144531,
        -367.14581298828125,
        -126.55991363525391
      ],
      "type": "VEC3"
    },
    {
      "bufferView": 2,
      "byteOffset": 4726140,
      "componentType": 5126,
      "count": 651,
      "max": [
        0.99712759256362915,
        0.93257796764373779,
        0.99934327602386475
      ],
      "min": [
        -0.95118021965026855,
        -0.99512314796447754,
        -0.99985796213150024
      ],
      "type": "VEC3"
    },
    {
      "bufferView": 1,
      "byteOffset": 1572776,
      "componentType": 5126,
      "count": 651,
      "max": [
        0.93142998218536377,
        0.84369999170303345
      ],
      "min": [
        0.028480000793933868,
        0.030279999598860741
      ],
      "type": "VEC2"
    },
    {
      "bufferView": 0,
      "byteOffset": 3596760,
      "componentType": 5125,
      "count": 798,
      "max": [
        650
      ],
      "min": [
        0
      ],
      "type": "SCALAR"
    }
  ],
  "asset": {
    "extras": {
      "author": "Museo Nacional de Historia Natural de Chile (https://sketchfab.com/MNHNcl)",
      "license": "CC0-1.0 (http://creativecommons.org/publicdomain/zero/1.0/)",
      "source": "https://sketchfab.com/3d-models/plato-de-madera-mapuche-ad3c643a3e2f48a185381a870d923b8a",
      "title": "Plato de madera mapuche"
    },
    "generator": "Sketchfab-7.80.0",
    "version": "2.0"
  },
  "bufferViews": [
    {
      "buffer": 0,
      "byteLength": 3599952,
      "byteOffset": 0,
      "name": "floatBufferViews",
      "target": 34963
    },
    {
      "buffer": 0,
      "byteLength": 1577984,
      "byteOffset": 3599952,
      "byteStride": 8,
      "name": "floatBufferViews",
      "target": 34962
    },
    {
      "buffer": 0,
      "byteLength": 4733952,
      "byteOffset": 5177936,
      "byteStride": 12,
      "name": "floatBufferViews",
      "target": 34962
    }
  ],
  "buffers": [
    {
      "byteLength": 9911888,
      "uri": "scene.bin"
    }
  ],
  "images": [
    {
      "uri": "textures/defaultMat_baseColor.jpeg"
    }
  ],
  "materials": [
    {
      "doubleSided": true,
      "emissiveFactor": [
        1,
        1,
        1
      ],
      "emissiveTexture": {
        "index": 0,
        "texCoord": 0
      },
      "name": "defaultMat",
      "pbrMetallicRoughness": {
        "baseColorFactor": [
          1,
          1,
          1,
          1
        ],
        "baseColorTexture": {
          "index": 0,
          "texCoord": 0
        },
        "metallicFactor": 0,
        "roughnessFactor": 1
      }
    }
  ],
  "meshes": [
    {
      "primitives": [
        {
          "attributes": {
            "NORMAL": 1,
            "POSITION": 0,
            "TEXCOORD_0": 2
          },
          "indices": 3,
          "material": 0,
          "mode": 4
        }
      ]
    },
    {
      "primitives": [
        {
          "attributes": {
            "NORMAL": 5,
            "POSITION": 4,
            "TEXCOORD_0": 6
          },
          "indices": 7,
          "material": 0,
          "mode": 4
        }
      ]
    },
    {
      "primitives": [
        {
          "attributes": {
            "NORMAL": 9,
            "POSITION": 8,
            "TEXCOORD_0": 10
          },
          "indices": 11,
          "material": 0,
          "mode": 4
        }
      ]
    },
    {
      "primitives": [
        {
          "attributes": {
            "NORMAL": 13,
            "POSITION": 12,
            "TEXCOORD_0": 14
          },
          "indices": 15,
          "material": 0,
          "mode": 4
        }
      ]
    }
  ],
  "nodes": [
    {
      "children": [
        1
      ],
      "name": "RootNode (gltf orientation matrix)",
      "rotation": [
        -0.70710678118654746,
        -0,
        -0,
        0.70710678118654757
      ]
    },
    {
      "children": [
        2
      ],
      "name": "RootNode (model correction matrix)"
    },
    {
      "children": [
        3,
        4,
        5,
        6
      ],
      "name": "ET06_L_MK1.OBJ.cleaner.materialmerger.gles"
    },
    {
      "mesh": 0,
      "name": ""
    },
    {
      "mesh": 1,
      "name": ""
    },
    {
      "mesh": 2,
      "name": ""
    },
    {
      "mesh": 3,
      "name": ""
    }
  ],
  "samplers": [
    {
      "magFilter": 9729,
      "minFilter": 9987,
      "wrapS": 10497,
      "wrapT": 10497
    }
  ],
  "scene": 0,
  "scenes": [
    {
      "name": "OSG_Scene",
      "nodes": [
        0
      ]
    }
  ],
  "textures": [
    {
      "sampler": 0,
      "source": 0
    }
  ]
}

