{
  "accessors": [
    {
      "bufferView": 2,
      "componentType": 5126,
      "count": 10229,
      "max": [
        0.090884655714035034,
        0.16000604629516602,
        0.091233253479003906
      ],
      "min": [
        -0.090871632099151611,
        -0.15871477127075195,
        -0.091260433197021484
      ],
      "type": "VEC3"
    },
    {
      "bufferView": 2,
      "byteOffset": 122748,
      "componentType": 5126,
      "count": 10229,
      "max": [
        0.99988949298858643,
        0.99999707937240601,
        0.99982017278671265
      ],
      "min": [
        -0.99985748529434204,
        -0.9999966025352478,
        -0.99999696016311646
      ],
      "type": "VEC3"
    },
    {
      "bufferView": 3,
      "componentType": 5126,
      "count": 10229,
      "max": [
        0.99998432397842407,
        0.99553155899047852,
        0.98228812217712402,
        1
      ],
      "min": [
        -0.99999153614044189,
        -0.99959385395050049,
        -0.99555349349975586,
        1
      ],
      "type": "VEC4"
    },
    {
      "bufferView": 1,
      "componentType": 5126,
      "count": 10229,
      "max": [
        0.97999995946884155,
        0.97272557020187378
      ],
      "min": [
        0.019999999552965164,
        0.019999999552965164
      ],
      "type": "VEC2"
    },
    {
      "bufferView": 0,
      "componentType": 5125,
      "count": 55794,
      "max": [
        10228
      ],
      "min": [
        0
      ],
      "type": "SCALAR"
    }
  ],
  "asset": {
    "extras": {
      "author": "Alejandro Mohedo (https://sketchfab.com/plan9)",
      "license": "CC-BY-4.0 (http://creativecommons.org/licenses/by/4.0/)",
      "source": "https://sketchfab.com/3d-models/cantaro-de-barro-bd89f42d4c6e443283948e8aa3856ebc",
      "title": "Cántaro de barro"
    },
    "generator": "Sketchfab-8.27.0",
    "version": "2.0"
  },
  "bufferViews": [
    {
      "buffer": 0,
      "byteLength": 223176,
      "byteOffset": 0,
      "name": "floatBufferViews",
      "target": 34963
    },
    {
      "buffer": 0,
      "byteLength": 81832,
      "byteOffset": 223176,
      "byteStride": 8,
      "name": "floatBufferViews",
      "target": 34962
    },
    {
      "buffer": 0,
      "byteLength": 245496,
      "byteOffset": 305008,
      "byteStride": 12,
      "name": "floatBufferViews",
      "target": 34962
    },
    {
      "buffer": 0,
      "byteLength": 163664,
      "byteOffset": 550504,
      "byteStride": 16,
      "name": "floatBufferViews",
      "target": 34962
    }
  ],
  "buffers": [
    {
      "byteLength": 714168,
      "uri": "scene.bin"
    }
  ],
  "extensionsRequired": [
    "KHR_materials_pbrSpecularGlossiness"
  ],
  "extensionsUsed": [
    "KHR_materials_pbrSpecularGlossiness"
  ],
  "images": [
    {
      "uri": "textures/JARRON_JARRON_Material_u1_v1_diffuse.jpeg"
    },
    {
      "uri": "textures/JARRON_JARRON_Material_u1_v1_normal.png"
    },
    {
      "uri": "textures/JARRON_JARRON_Material_u1_v1_occlusion.png"
    }
  ],
  "materials": [
    {
      "doubleSided": true,
      "extensions": {
        "KHR_materials_pbrSpecularGlossiness": {
          "diffuseFactor": [
            1,
            1,
            1,
            1
          ],
          "diffuseTexture": {
            "index": 0,
            "texCoord": 0
          },
          "glossinessFactor": 0.8645261417045158,
          "specularFactor": [
            0.017667373119765514,
            0.017667373119765514,
            0.017667373119765514
          ]
        }
      },
      "name": "JARRON_JARRON_Material_u1_v1",
      "normalTexture": {
        "index": 1,
        "scale": 0.37260061166542024,
        "texCoord": 0
      },
      "occlusionTexture": {
        "index": 2,
        "strength": 1,
        "texCoord": 0
      }
    }
  ],
  "meshes": [
    {
      "primitives": [
        {
          "attributes": {
            "NORMAL": 1,
            "POSITION": 0,
            "TANGENT": 2,
            "TEXCOORD_0": 3
          },
          "indices": 4,
          "material": 0,
          "mode": 4
        }
      ]
    }
  ],
  "nodes": [
    {
      "children": [
        1
      ],
      "name": "RootNode (gltf orientation matrix)",
      "rotation": [
        -0.70710678118654746,
        -0,
        -0,
        0.70710678118654757
      ]
    },
    {
      "children": [
        2
      ],
      "matrix": [
        1,
        0,
        0,
        0,
        0,
        2.2204460492503131e-16,
        -1,
        0,
        0,
        1,
        2.2204460492503131e-16,
        0,
        0,
        0.00065850839018821716,
        0.0006314404308795929,
        1
      ],
      "name": "RootNode (model correction matrix)"
    },
    {
      "children": [
        3
      ],
      "name": "JARRON_BAJA.obj.cleaner.materialmerger.gles"
    },
    {
      "mesh": 0,
      "name": ""
    }
  ],
  "samplers": [
    {
      "magFilter": 9729,
      "minFilter": 9987,
      "wrapS": 10497,
      "wrapT": 10497
    }
  ],
  "scene": 0,
  "scenes": [
    {
      "name": "OSG_Scene",
      "nodes": [
        0
      ]
    }
  ],
  "textures": [
    {
      "sampler": 0,
      "source": 0
    },
    {
      "sampler": 0,
      "source": 1
    },
    {
      "sampler": 0,
      "source": 2
    }
  ]
}

