<?xml version="1.0" encoding="utf-8"?>
<!-- Generator: Adobe Illustrator 16.0.3, SVG Export Plug-In . SVG Version: 6.00 Build 0)  -->
<!DOCTYPE svg PUBLIC "-//W3C//DTD SVG 1.1//EN" "http://www.w3.org/Graphics/SVG/1.1/DTD/svg11.dtd">
<svg version="1.1" id="Capa_1" xmlns="http://www.w3.org/2000/svg" xmlns:xlink="http://www.w3.org/1999/xlink" x="0px" y="0px"
	 width="925.629px" height="291.041px" viewBox="0 0 925.629 291.041" enable-background="new 0 0 925.629 291.041"
	 xml:space="preserve">
<path fill-rule="evenodd" clip-rule="evenodd" fill="none" d="M0.75,291.791c308.543,0,617.086,0,925.629,0
	c-0.125,0.249-0.237,0.707-0.377,0.716c-0.996,0.063-1.998,0.034-2.998,0.034c-306.293,0-612.585,0-918.878-0.031
	C3,292.51,1.875,292.04,0.75,291.791z"/>
<path fill-rule="evenodd" clip-rule="evenodd" fill="#FFFFFF" d="M243.784,152.223c0.155,60.076-48.827,109.529-110.068,109.58
	C74.112,261.852,23.407,211.594,24.396,149.9C25.311,92.799,73.291,40.214,137.323,42.072
	C195.565,43.762,243.948,91.154,243.784,152.223z M231.06,179.249c0.556,0.67,1.111,1.34,1.667,2.011
	c0.202-0.165,0.404-0.33,0.606-0.495c-0.554-0.71-1.107-1.419-1.662-2.129c-1.8-2.981-3.565-5.985-5.408-8.942
	c-5.539-8.888-11.079-17.775-16.715-26.602c-0.509-0.797-2.267-1.81-2.501-1.611c-2.179,1.851-4.205,3.897-6.119,6.027
	c-0.252,0.28,0.163,1.559,0.623,2.024C211.355,159.469,221.213,169.353,231.06,179.249z M176.818,182.906
	c-0.43-0.929-0.588-1.393-0.84-1.799c-17.491-28.111-35.044-56.185-52.417-84.37c-2.057-3.336-3.128-1.778-4.84-0.039
	c-27.543,27.961-55.111,55.898-82.662,83.852c-0.63,0.639-1.135,1.402-1.896,2.355C81.88,182.906,129.117,182.906,176.818,182.906z
	 M206.221,178.384c-0.018-0.117,0.034-0.534-0.139-0.812c-12.646-20.352-25.301-40.696-38.042-60.988
	c-0.244-0.388-1.855-0.492-2.252-0.118c-2.997,2.825-5.726,5.938-8.788,8.685c-2.078,1.863-1.599,2.967,0.148,4.709
	c7.777,7.757,15.321,15.75,23.13,23.476C188.873,161.837,197.664,170.138,206.221,178.384z"/>
<path fill-rule="evenodd" clip-rule="evenodd" fill="#FFFFFF" d="M758.221,103.391c-5.297,0-10.292,0.093-15.277-0.081
	c-0.963-0.034-2.376-0.891-2.758-1.738c-4.692-10.406-13.199-16.618-23.433-20.291c-27.524-9.876-52.771-5.833-74.32,14.459
	c-10.808,10.18-17.06,23.262-19.446,38.015c-3.379,20.881-0.973,40.894,10.078,59.234c11.777,19.547,29.481,30.438,51.941,33.444
	c21.612,2.892,41.753-1.303,59.882-13.785c2.871-1.977,5.638-4.158,8.19-6.528c1.594-1.48,2.425-1.167,3.865,0.146
	c5.356,4.887,5.395,4.813-0.079,9.771c-12.363,11.197-27.315,17.016-43.385,19.777c-24.465,4.203-48.566,3.271-71.222-8.352
	c-19.77-10.143-32.902-26.035-39.435-47.244c-6.159-20.001-6.468-40.121,0.304-60.018c7.282-21.397,21.691-36.656,42.351-45.462
	c24.867-10.6,50.552-11.905,76.537-4.288C738.444,75.266,751.89,87.578,758.221,103.391z"/>
<path fill-rule="evenodd" clip-rule="evenodd" fill="#FFFFFF" d="M578.981,235.128c-7.577,0-14.664,0.098-21.741-0.125
	c-0.881-0.026-1.997-1.618-2.516-2.715c-6.76-14.307-13.48-28.633-20.078-43.016c-1.068-2.329-2.313-3.208-4.973-3.195
	c-25.125,0.12-50.251,0.119-75.375,0c-2.554-0.013-3.638,0.793-4.587,3.076c-5.884,14.138-12.017,28.173-17.866,42.325
	c-1.167,2.825-2.599,3.856-5.692,3.745c-7.049-0.256-7.056-0.077-4.326-6.524c22.016-51.986,44.061-103.959,65.973-155.99
	c1.312-3.115,2.902-3.928,6.233-4.243c5.76-0.547,8.307,1.62,10.695,6.805c23.931,51.967,48.188,103.784,72.352,155.645
	C577.65,232.141,578.193,233.379,578.981,235.128z M455.795,175.309c24.3,0,48.164,0,72.377,0
	c-12.593-26.924-25.037-53.537-37.909-81.061C478.497,121.919,467.205,148.477,455.795,175.309z"/>
<path fill-rule="evenodd" clip-rule="evenodd" fill="#FFFFFF" d="M297.63,151.502c0-26.244,0.05-52.489-0.067-78.733
	c-0.014-3.098,0.469-4.23,3.985-4.213c33.117,0.16,66.235,0.146,99.353,0.017c3.274-0.012,4.207,0.754,4.121,4.094
	c-0.235,9.09-0.067,9.095-9.111,9.095c-24.495,0-48.99,0.042-73.484-0.061c-2.689-0.011-3.613,0.482-3.586,3.425
	c0.156,17.62,0.15,35.242,0.003,52.862c-0.024,2.864,0.767,3.501,3.532,3.487c21.995-0.115,43.99,0.001,65.985-0.135
	c3.296-0.021,4.552,0.651,4.396,4.242c-0.298,6.802-0.073,6.813-6.925,6.813c-21.12,0-42.241,0.07-63.36-0.079
	c-3.041-0.021-3.628,0.893-3.616,3.728c0.108,24.869-0.048,49.74,0.176,74.607c0.035,3.986-1.177,4.821-4.778,4.563
	c-4.228-0.305-8.506-0.273-12.738-0.004c-3.072,0.195-4.003-0.644-3.966-3.85c0.181-15.495,0.082-30.993,0.082-46.489
	C297.63,173.747,297.63,162.625,297.63,151.502z"/>
<path fill-rule="evenodd" clip-rule="evenodd" fill="#FFFFFF" d="M795.502,151.753c-0.001-26.248,0.084-52.497-0.096-78.744
	c-0.025-3.733,1.053-4.663,4.588-4.436c4.855,0.31,9.746,0.136,14.619,0.05c1.732-0.031,2.597,0.444,2.389,2.307
	c-0.097,0.864-0.015,1.748-0.015,2.623c0,48.122,0.045,96.243-0.092,144.364c-0.011,3.58,1.089,4.2,4.353,4.185
	c25.998-0.128,51.997-0.024,77.994-0.137c2.891-0.013,3.794,0.653,3.744,3.667c-0.158,9.509-0.024,9.511-9.54,9.511
	c-31.373,0-62.746-0.049-94.118,0.073c-3.17,0.013-3.91-0.898-3.896-3.969C795.553,204.749,795.502,178.251,795.502,151.753z"/>
<path fill-rule="evenodd" clip-rule="evenodd" fill="#FFFFFF" d="M273.987,151.823c0,35.478-0.027,70.956,0.055,106.434
	c0.006,2.628-0.413,4.212-3.367,3.447c-0.656-0.17-1.284-1.091-1.582-1.809c-0.266-0.64-0.061-1.475-0.061-2.226
	c0-70.58-0.008-141.161,0.061-211.741c0.001-1.298,0.613-3.432,1.458-3.736c2.542-0.915,3.517,0.286,3.508,3.198
	C273.949,80.869,273.987,116.346,273.987,151.823z"/>
<path fill-rule="evenodd" clip-rule="evenodd" fill="#6DCBE9" d="M231.06,179.249c0.204-0.205,0.408-0.409,0.611-0.613
	c0.554,0.71,1.107,1.419,1.661,2.129c-0.202,0.165-0.404,0.33-0.606,0.495C232.17,180.589,231.615,179.919,231.06,179.249z"/>
</svg>
