{
    "asset" : {
        "generator" : "Khronos glTF Blender I/O v1.4.40",
        "version" : "2.0"
    },
    "scene" : 0,
    "scenes" : [
        {
            "name" : "Scene",
            "nodes" : [
                7,
                8,
                9
            ]
        }
    ],
    "nodes" : [
        {
            "mesh" : 0,
            "name" : "Carreta_L0_lambert1_0",
            "scale" : [
                0.25,
                0.25,
                0.25
            ],
            "translation" : [
                -84.18241882324219,
                -46.82724380493164,
                -7.802243232727051
            ]
        },
        {
            "children" : [
                0
            ],
            "name" : "Carreta_L0",
            "rotation" : [
                -0.08245673775672913,
                0,
                0,
                0.9965946674346924
            ],
            "translation" : [
                300,
                0,
                0
            ]
        },
        {
            "name" : "Carreta_L1",
            "rotation" : [
                -0.08245673775672913,
                0,
                0,
                0.9965946674346924
            ]
        },
        {
            "name" : "Carreta_L2",
            "rotation" : [
                -0.08245673775672913,
                0,
                0,
                0.9965946674346924
            ],
            "translation" : [
                -300,
                0,
                0
            ]
        },
        {
            "children" : [
                1,
                2,
                3
            ],
            "name" : "RootNode"
        },
        {
            "children" : [
                4
            ],
            "name" : "424a857279fa40bc92c2e700e4ddd026.fbx",
            "rotation" : [
                0.7071068286895752,
                0,
                0,
                0.7071068286895752
            ]
        },
        {
            "children" : [
                5
            ],
            "name" : "RootNode (model correction matrix)"
        },
        {
            "children" : [
                6
            ],
            "name" : "RootNode (gltf orientation matrix)",
            "rotation" : [
                -0.2808380424976349,
                -0.6489453315734863,
                -0.6489453315734863,
                0.2808380424976349
            ],
            "scale" : [
                0.25,
                0.25,
                0.25
            ],
            "translation" : [
                7.8595356941223145,
                3.683342456817627,
                0.3148326873779297
            ]
        },
        {
            "name" : "Light",
            "rotation" : [
                0.3169355094432831,
                -0.22377637028694153,
                0.04707188904285431,
                0.9204675555229187
            ],
            "translation" : [
                5.802234172821045,
                9.587203979492188,
                3.9746437072753906
            ]
        },
        {
            "name" : "Camera",
            "rotation" : [
                0.38358074426651,
                -0.5824922323226929,
                0.36087408661842346,
                0.6191433668136597
            ],
            "translation" : [
                -2.226633071899414,
                8.641651153564453,
                0.9385795593261719
            ]
        }
    ],
    "materials" : [
        {
            "doubleSided" : true,
            "name" : "lambert1",
            "pbrMetallicRoughness" : {
                "metallicFactor" : 0.30571871995925903
            }
        }
    ],
    "meshes" : [
        {
            "name" : "Carreta_L0_lambert1_0",
            "primitives" : [
                {
                    "attributes" : {
                        "POSITION" : 0,
                        "NORMAL" : 1,
                        "TEXCOORD_0" : 2
                    },
                    "indices" : 3,
                    "material" : 0
                }
            ]
        }
    ],
    "accessors" : [
        {
            "bufferView" : 0,
            "componentType" : 5126,
            "count" : 6037,
            "max" : [
                81.42122650146484,
                123.80636596679688,
                60.7397346496582
            ],
            "min" : [
                -681.4212036132812,
                -0.12281355261802673,
                -255.8186798095703
            ],
            "type" : "VEC3"
        },
        {
            "bufferView" : 1,
            "componentType" : 5126,
            "count" : 6037,
            "type" : "VEC3"
        },
        {
            "bufferView" : 2,
            "componentType" : 5126,
            "count" : 6037,
            "type" : "VEC2"
        },
        {
            "bufferView" : 3,
            "componentType" : 5123,
            "count" : 8406,
            "type" : "SCALAR"
        }
    ],
    "bufferViews" : [
        {
            "buffer" : 0,
            "byteLength" : 72444,
            "byteOffset" : 0
        },
        {
            "buffer" : 0,
            "byteLength" : 72444,
            "byteOffset" : 72444
        },
        {
            "buffer" : 0,
            "byteLength" : 48296,
            "byteOffset" : 144888
        },
        {
            "buffer" : 0,
            "byteLength" : 16812,
            "byteOffset" : 193184
        }
    ],
    "buffers" : [
        {
            "byteLength" : 209996,
            "uri" : "data:application/octet-stream;base64,"
        }
    ]
}
