{
  "accessors": [
    {
      "bufferView": 2,
      "componentType": 5126,
      "count": 65532,
      "max": [
        -51.805122375488281,
        -284.64260864257812,
        55.7803955078125
      ],
      "min": [
        -204.97062683105469,
        -409.95611572265625,
        -129.54281616210938
      ],
      "type": "VEC3"
    },
    {
      "bufferView": 2,
      "byteOffset": 786384,
      "componentType": 5126,
      "count": 65532,
      "max": [
        0.99993950128555298,
        0.99996894598007202,
        0.99999779462814331
      ],
      "min": [
        -0.99998098611831665,
        -0.99999231100082397,
        -0.99999946355819702
      ],
      "type": "VEC3"
    },
    {
      "bufferView": 3,
      "componentType": 5126,
      "count": 65532,
      "max": [
        1,
        1,
        1,
        1
      ],
      "min": [
        1,
        1,
        1,
        1
      ],
      "type": "VEC4"
    },
    {
      "bufferView": 1,
      "componentType": 5126,
      "count": 65532,
      "max": [
        0.93493002653121948,
        0.88055002689361572
      ],
      "min": [
        0.0082700001075863838,
        0.020239999517798424
      ],
      "type": "VEC2"
    },
    {
      "bufferView": 0,
      "componentType": 5125,
      "count": 303219,
      "max": [
        65531
      ],
      "min": [
        0
      ],
      "type": "SCALAR"
    },
    {
      "bufferView": 2,
      "byteOffset": 1572768,
      "componentType": 5126,
      "count": 65532,
      "max": [
        -51.901988983154297,
        -292.19680786132812,
        56.085830688476562
      ],
      "min": [
        -214.55915832519531,
        -405.66677856445312,
        -129.40994262695312
      ],
      "type": "VEC3"
    },
    {
      "bufferView": 2,
      "byteOffset": 2359152,
      "componentType": 5126,
      "count": 65532,
      "max": [
        0.99995040893554688,
        0.99999922513961792,
        0.99998241662979126
      ],
      "min": [
        -0.99987834692001343,
        -0.99998831748962402,
        -0.99999994039535522
      ],
      "type": "VEC3"
    },
    {
      "bufferView": 3,
      "byteOffset": 1048512,
      "componentType": 5126,
      "count": 65532,
      "max": [
        1,
        1,
        1,
        1
      ],
      "min": [
        1,
        1,
        1,
        1
      ],
      "type": "VEC4"
    },
    {
      "bufferView": 1,
      "byteOffset": 524256,
      "componentType": 5126,
      "count": 65532,
      "max": [
        0.99804002046585083,
        0.93051999807357788
      ],
      "min": [
        0.0019499999471008778,
        0.005169999785721302
      ],
      "type": "VEC2"
    },
    {
      "bufferView": 0,
      "byteOffset": 1212876,
      "componentType": 5125,
      "count": 317286,
      "max": [
        65531
      ],
      "min": [
        0
      ],
      "type": "SCALAR"
    },
    {
      "bufferView": 2,
      "byteOffset": 3145536,
      "componentType": 5126,
      "count": 65532,
      "max": [
        -48.956016540527344,
        -285.02633666992188,
        62.463893890380859
      ],
      "min": [
        -212.06053161621094,
        -409.06124877929688,
        -129.54179382324219
      ],
      "type": "VEC3"
    },
    {
      "bufferView": 2,
      "byteOffset": 3931920,
      "componentType": 5126,
      "count": 65532,
      "max": [
        0.99990618228912354,
        0.9999803900718689,
        0.99998718500137329
      ],
      "min": [
        -0.99998688697814941,
        -0.99998944997787476,
        -0.99999964237213135
      ],
      "type": "VEC3"
    },
    {
      "bufferView": 3,
      "byteOffset": 2097024,
      "componentType": 5126,
      "count": 65532,
      "max": [
        1,
        1,
        1,
        1
      ],
      "min": [
        1,
        1,
        1,
        1
      ],
      "type": "VEC4"
    },
    {
      "bufferView": 1,
      "byteOffset": 1048512,
      "componentType": 5126,
      "count": 65532,
      "max": [
        0.98995000123977661,
        0.942330002784729
      ],
      "min": [
        0.018330000340938568,
        0.0048199999146163464
      ],
      "type": "VEC2"
    },
    {
      "bufferView": 0,
      "byteOffset": 2482020,
      "componentType": 5125,
      "count": 312198,
      "max": [
        65531
      ],
      "min": [
        0
      ],
      "type": "SCALAR"
    },
    {
      "bufferView": 2,
      "byteOffset": 4718304,
      "componentType": 5126,
      "count": 65532,
      "max": [
        -49.867866516113281,
        -284.74746704101562,
        63.430191040039062
      ],
      "min": [
        -214.50759887695312,
        -410.0091552734375,
        -129.52818298339844
      ],
      "type": "VEC3"
    },
    {
      "bufferView": 2,
      "byteOffset": 5504688,
      "componentType": 5126,
      "count": 65532,
      "max": [
        0.99999827146530151,
        0.99989652633666992,
        0.99960780143737793
      ],
      "min": [
        -0.99810868501663208,
        -0.99999600648880005,
        -0.99999111890792847
      ],
      "type": "VEC3"
    },
    {
      "bufferView": 3,
      "byteOffset": 3145536,
      "componentType": 5126,
      "count": 65532,
      "max": [
        1,
        1,
        1,
        1
      ],
      "min": [
        1,
        1,
        1,
        1
      ],
      "type": "VEC4"
    },
    {
      "bufferView": 1,
      "byteOffset": 1572768,
      "componentType": 5126,
      "count": 65532,
      "max": [
        0.9778599739074707,
        0.93238997459411621
      ],
      "min": [
        0.067720003426074982,
        0.024739999324083328
      ],
      "type": "VEC2"
    },
    {
      "bufferView": 0,
      "byteOffset": 3730812,
      "componentType": 5125,
      "count": 311274,
      "max": [
        65531
      ],
      "min": [
        0
      ],
      "type": "SCALAR"
    },
    {
      "bufferView": 2,
      "byteOffset": 6291072,
      "componentType": 5126,
      "count": 65532,
      "max": [
        -49.041923522949219,
        -284.81674194335938,
        63.430191040039062
      ],
      "min": [
        -214.516357421875,
        -408.62216186523438,
        -129.51176452636719
      ],
      "type": "VEC3"
    },
    {
      "bufferView": 2,
      "byteOffset": 7077456,
      "componentType": 5126,
      "count": 65532,
      "max": [
        0.99997586011886597,
        0.99997800588607788,
        0.99998277425765991
      ],
      "min": [
        -0.99999433755874634,
        -0.99999618530273438,
        -0.9999992847442627
      ],
      "type": "VEC3"
    },
    {
      "bufferView": 3,
      "byteOffset": 4194048,
      "componentType": 5126,
      "count": 65532,
      "max": [
        1,
        1,
        1,
        1
      ],
      "min": [
        1,
        1,
        1,
        1
      ],
      "type": "VEC4"
    },
    {
      "bufferView": 1,
      "byteOffset": 2097024,
      "componentType": 5126,
      "count": 65532,
      "max": [
        0.99127000570297241,
        0.8658599853515625
      ],
      "min": [
        0.024590000510215759,
        0.0030499999411404133
      ],
      "type": "VEC2"
    },
    {
      "bufferView": 0,
      "byteOffset": 4975908,
      "componentType": 5125,
      "count": 316650,
      "max": [
        65531
      ],
      "min": [
        0
      ],
      "type": "SCALAR"
    },
    {
      "bufferView": 2,
      "byteOffset": 7863840,
      "componentType": 5126,
      "count": 65532,
      "max": [
        -48.964942932128906,
        -289.49313354492188,
        63.427993774414062
      ],
      "min": [
        -214.26722717285156,
        -410.01727294921875,
        -129.51335144042969
      ],
      "type": "VEC3"
    },
    {
      "bufferView": 2,
      "byteOffset": 8650224,
      "componentType": 5126,
      "count": 65532,
      "max": [
        0.99999898672103882,
        0.99998641014099121,
        0.99996626377105713
      ],
      "min": [
        -0.99984002113342285,
        -0.99999618530273438,
        -0.99999958276748657
      ],
      "type": "VEC3"
    },
    {
      "bufferView": 3,
      "byteOffset": 5242560,
      "componentType": 5126,
      "count": 65532,
      "max": [
        1,
        1,
        1,
        1
      ],
      "min": [
        1,
        1,
        1,
        1
      ],
      "type": "VEC4"
    },
    {
      "bufferView": 1,
      "byteOffset": 2621280,
      "componentType": 5126,
      "count": 65532,
      "max": [
        0.9589800238609314,
        0.93389999866485596
      ],
      "min": [
        0.026729999110102654,
        0.0019900000188499689
      ],
      "type": "VEC2"
    },
    {
      "bufferView": 0,
      "byteOffset": 6242508,
      "componentType": 5125,
      "count": 322512,
      "max": [
        65531
      ],
      "min": [
        0
      ],
      "type": "SCALAR"
    },
    {
      "bufferView": 2,
      "byteOffset": 9436608,
      "componentType": 5126,
      "count": 65532,
      "max": [
        -51.778530120849609,
        -284.673828125,
        62.117759704589844
      ],
      "min": [
        -214.45695495605469,
        -409.99908447265625,
        -129.51335144042969
      ],
      "type": "VEC3"
    },
    {
      "bufferView": 2,
      "byteOffset": 10222992,
      "componentType": 5126,
      "count": 65532,
      "max": [
        0.99999171495437622,
        0.99999690055847168,
        0.99999988079071045
      ],
      "min": [
        -0.99493378400802612,
        -0.99999165534973145,
        -0.99999982118606567
      ],
      "type": "VEC3"
    },
    {
      "bufferView": 3,
      "byteOffset": 6291072,
      "componentType": 5126,
      "count": 65532,
      "max": [
        1,
        1,
        1,
        1
      ],
      "min": [
        1,
        1,
        1,
        1
      ],
      "type": "VEC4"
    },
    {
      "bufferView": 1,
      "byteOffset": 3145536,
      "componentType": 5126,
      "count": 65532,
      "max": [
        0.98703998327255249,
        0.92249000072479248
      ],
      "min": [
        0.034830000251531601,
        0.0019499999471008778
      ],
      "type": "VEC2"
    },
    {
      "bufferView": 0,
      "byteOffset": 7532556,
      "componentType": 5125,
      "count": 313953,
      "max": [
        65531
      ],
      "min": [
        0
      ],
      "type": "SCALAR"
    },
    {
      "bufferView": 2,
      "byteOffset": 11009376,
      "componentType": 5126,
      "count": 65532,
      "max": [
        -49.459381103515625,
        -284.6612548828125,
        62.954025268554688
      ],
      "min": [
        -214.55915832519531,
        -409.9361572265625,
        -129.52249145507812
      ],
      "type": "VEC3"
    },
    {
      "bufferView": 2,
      "byteOffset": 11795760,
      "componentType": 5126,
      "count": 65532,
      "max": [
        0.99999827146530151,
        0.99999690055847168,
        0.99998819828033447
      ],
      "min": [
        -0.99984002113342285,
        -0.99997854232788086,
        -0.9999995231628418
      ],
      "type": "VEC3"
    },
    {
      "bufferView": 3,
      "byteOffset": 7339584,
      "componentType": 5126,
      "count": 65532,
      "max": [
        1,
        1,
        1,
        1
      ],
      "min": [
        1,
        1,
        1,
        1
      ],
      "type": "VEC4"
    },
    {
      "bufferView": 1,
      "byteOffset": 3669792,
      "componentType": 5126,
      "count": 65532,
      "max": [
        0.98106002807617188,
        0.92013001441955566
      ],
      "min": [
        0.0081000002101063728,
        0.0022199999075382948
      ],
      "type": "VEC2"
    },
    {
      "bufferView": 0,
      "byteOffset": 8788368,
      "componentType": 5125,
      "count": 286053,
      "max": [
        65531
      ],
      "min": [
        0
      ],
      "type": "SCALAR"
    },
    {
      "bufferView": 2,
      "byteOffset": 12582144,
      "componentType": 5126,
      "count": 63600,
      "max": [
        -49.034641265869141,
        -284.6617431640625,
        63.418548583984375
      ],
      "min": [
        -214.54449462890625,
        -410.01727294921875,
        -129.54281616210938
      ],
      "type": "VEC3"
    },
    {
      "bufferView": 2,
      "byteOffset": 13345344,
      "componentType": 5126,
      "count": 63600,
      "max": [
        0.99997586011886597,
        0.99997192621231079,
        0.99998819828033447
      ],
      "min": [
        -0.99998688697814941,
        -0.99998259544372559,
        -0.99999994039535522
      ],
      "type": "VEC3"
    },
    {
      "bufferView": 3,
      "byteOffset": 8388096,
      "componentType": 5126,
      "count": 63600,
      "max": [
        1,
        1,
        1,
        1
      ],
      "min": [
        1,
        1,
        1,
        1
      ],
      "type": "VEC4"
    },
    {
      "bufferView": 1,
      "byteOffset": 4194048,
      "componentType": 5126,
      "count": 63600,
      "max": [
        0.99453002214431763,
        0.93673998117446899
      ],
      "min": [
        0.008659999817609787,
        0.0020399999339133501
      ],
      "type": "VEC2"
    },
    {
      "bufferView": 0,
      "byteOffset": 9932580,
      "componentType": 5125,
      "count": 141447,
      "max": [
        63599
      ],
      "min": [
        0
      ],
      "type": "SCALAR"
    }
  ],
  "asset": {
    "extras": {
      "author": "Museo Nacional de Historia Natural de Chile (https://sketchfab.com/MNHNcl)",
      "license": "CC0-1.0 (http://creativecommons.org/publicdomain/zero/1.0/)",
      "source": "https://sketchfab.com/3d-models/vasija-antropomorfa-moche-0d2a07dcbfe84046bf76a7dd3292a5ae",
      "title": "Vasija antropomorfa Moche"
    },
    "generator": "Sketchfab-7.80.0",
    "version": "2.0"
  },
  "bufferViews": [
    {
      "buffer": 0,
      "byteLength": 10498368,
      "byteOffset": 0,
      "name": "floatBufferViews",
      "target": 34963
    },
    {
      "buffer": 0,
      "byteLength": 4702848,
      "byteOffset": 10498368,
      "byteStride": 8,
      "name": "floatBufferViews",
      "target": 34962
    },
    {
      "buffer": 0,
      "byteLength": 14108544,
      "byteOffset": 15201216,
      "byteStride": 12,
      "name": "floatBufferViews",
      "target": 34962
    },
    {
      "buffer": 0,
      "byteLength": 9405696,
      "byteOffset": 29309760,
      "byteStride": 16,
      "name": "floatBufferViews",
      "target": 34962
    }
  ],
  "buffers": [
    {
      "byteLength": 38715456,
      "uri": "scene.bin"
    }
  ],
  "images": [
    {
      "uri": "textures/defaultMat_baseColor.jpeg"
    }
  ],
  "materials": [
    {
      "doubleSided": true,
      "emissiveFactor": [
        1,
        1,
        1
      ],
      "emissiveTexture": {
        "index": 0,
        "texCoord": 0
      },
      "name": "defaultMat",
      "pbrMetallicRoughness": {
        "baseColorFactor": [
          1,
          1,
          1,
          1
        ],
        "baseColorTexture": {
          "index": 0,
          "texCoord": 0
        },
        "metallicFactor": 0,
        "roughnessFactor": 0.59999999999999998
      }
    }
  ],
  "meshes": [
    {
      "primitives": [
        {
          "attributes": {
            "COLOR_0": 2,
            "NORMAL": 1,
            "POSITION": 0,
            "TEXCOORD_0": 3
          },
          "indices": 4,
          "material": 0,
          "mode": 4
        }
      ]
    },
    {
      "primitives": [
        {
          "attributes": {
            "COLOR_0": 7,
            "NORMAL": 6,
            "POSITION": 5,
            "TEXCOORD_0": 8
          },
          "indices": 9,
          "material": 0,
          "mode": 4
        }
      ]
    },
    {
      "primitives": [
        {
          "attributes": {
            "COLOR_0": 12,
            "NORMAL": 11,
            "POSITION": 10,
            "TEXCOORD_0": 13
          },
          "indices": 14,
          "material": 0,
          "mode": 4
        }
      ]
    },
    {
      "primitives": [
        {
          "attributes": {
            "COLOR_0": 17,
            "NORMAL": 16,
            "POSITION": 15,
            "TEXCOORD_0": 18
          },
          "indices": 19,
          "material": 0,
          "mode": 4
        }
      ]
    },
    {
      "primitives": [
        {
          "attributes": {
            "COLOR_0": 22,
            "NORMAL": 21,
            "POSITION": 20,
            "TEXCOORD_0": 23
          },
          "indices": 24,
          "material": 0,
          "mode": 4
        }
      ]
    },
    {
      "primitives": [
        {
          "attributes": {
            "COLOR_0": 27,
            "NORMAL": 26,
            "POSITION": 25,
            "TEXCOORD_0": 28
          },
          "indices": 29,
          "material": 0,
          "mode": 4
        }
      ]
    },
    {
      "primitives": [
        {
          "attributes": {
            "COLOR_0": 32,
            "NORMAL": 31,
            "POSITION": 30,
            "TEXCOORD_0": 33
          },
          "indices": 34,
          "material": 0,
          "mode": 4
        }
      ]
    },
    {
      "primitives": [
        {
          "attributes": {
            "COLOR_0": 37,
            "NORMAL": 36,
            "POSITION": 35,
            "TEXCOORD_0": 38
          },
          "indices": 39,
          "material": 0,
          "mode": 4
        }
      ]
    },
    {
      "primitives": [
        {
          "attributes": {
            "COLOR_0": 42,
            "NORMAL": 41,
            "POSITION": 40,
            "TEXCOORD_0": 43
          },
          "indices": 44,
          "material": 0,
          "mode": 4
        }
      ]
    }
  ],
  "nodes": [
    {
      "children": [
        1
      ],
      "name": "RootNode (gltf orientation matrix)",
      "rotation": [
        -0.70710678118654746,
        -0,
        -0,
        0.70710678118654757
      ]
    },
    {
      "children": [
        2
      ],
      "matrix": [
        -0.85629934072494507,
        -0.51647979021072388,
        0,
        0,
        0.51647979021072388,
        -0.85629934072494507,
        0,
        0,
        0,
        0,
        1,
        0,
        -65.192527770996094,
        -712.7978515625,
        0,
        1
      ],
      "name": "RootNode (model correction matrix)"
    },
    {
      "children": [
        3,
        4,
        5,
        6,
        7,
        8,
        9,
        10,
        11
      ],
      "name": "AR05_H_MK2.OBJ.cleaner.materialmerger.gles"
    },
    {
      "mesh": 0,
      "name": ""
    },
    {
      "mesh": 1,
      "name": ""
    },
    {
      "mesh": 2,
      "name": ""
    },
    {
      "mesh": 3,
      "name": ""
    },
    {
      "mesh": 4,
      "name": ""
    },
    {
      "mesh": 5,
      "name": ""
    },
    {
      "mesh": 6,
      "name": ""
    },
    {
      "mesh": 7,
      "name": ""
    },
    {
      "mesh": 8,
      "name": ""
    }
  ],
  "samplers": [
    {
      "magFilter": 9729,
      "minFilter": 9987,
      "wrapS": 10497,
      "wrapT": 10497
    }
  ],
  "scene": 0,
  "scenes": [
    {
      "name": "OSG_Scene",
      "nodes": [
        0
      ]
    }
  ],
  "textures": [
    {
      "sampler": 0,
      "source": 0
    }
  ]
}

