{
  "accessors": [
    {
      "bufferView": 2,
      "componentType": 5126,
      "count": 65532,
      "max": [
        12.988019943237305,
        -248.83073425292969,
        136.88131713867188
      ],
      "min": [
        -96.573013305664062,
        -360.07662963867188,
        6.3315534591674805
      ],
      "type": "VEC3"
    },
    {
      "bufferView": 2,
      "byteOffset": 786384,
      "componentType": 5126,
      "count": 65532,
      "max": [
        0.99998825788497925,
        0.99992138147354126,
        0.99999409914016724
      ],
      "min": [
        -0.99996811151504517,
        -0.99999034404754639,
        -0.99999856948852539
      ],
      "type": "VEC3"
    },
    {
      "bufferView": 1,
      "componentType": 5126,
      "count": 65532,
      "max": [
        0.99365001916885376,
        0.99720001220703125
      ],
      "min": [
        0.0019499999471008778,
        0.0019499999471008778
      ],
      "type": "VEC2"
    },
    {
      "bufferView": 0,
      "componentType": 5125,
      "count": 304515,
      "max": [
        65531
      ],
      "min": [
        0
      ],
      "type": "SCALAR"
    },
    {
      "bufferView": 2,
      "byteOffset": 1572768,
      "componentType": 5126,
      "count": 65532,
      "max": [
        13.021401405334473,
        -248.31993103027344,
        134.1728515625
      ],
      "min": [
        -97.643074035644531,
        -359.95803833007812,
        6.4255695343017578
      ],
      "type": "VEC3"
    },
    {
      "bufferView": 2,
      "byteOffset": 2359152,
      "componentType": 5126,
      "count": 65532,
      "max": [
        0.9999922513961792,
        0.99995970726013184,
        0.99999409914016724
      ],
      "min": [
        -0.99999278783798218,
        -0.99961060285568237,
        -0.99999970197677612
      ],
      "type": "VEC3"
    },
    {
      "bufferView": 1,
      "byteOffset": 524256,
      "componentType": 5126,
      "count": 65532,
      "max": [
        0.97705000638961792,
        0.99804002046585083
      ],
      "min": [
        0.003590000094845891,
        0.0053199999965727329
      ],
      "type": "VEC2"
    },
    {
      "bufferView": 0,
      "byteOffset": 1218060,
      "componentType": 5125,
      "count": 313533,
      "max": [
        65531
      ],
      "min": [
        0
      ],
      "type": "SCALAR"
    },
    {
      "bufferView": 2,
      "byteOffset": 3145536,
      "componentType": 5126,
      "count": 65532,
      "max": [
        13.034098625183105,
        -248.35700988769531,
        135.23725891113281
      ],
      "min": [
        -97.109603881835938,
        -360.25732421875,
        6.4549245834350586
      ],
      "type": "VEC3"
    },
    {
      "bufferView": 2,
      "byteOffset": 3931920,
      "componentType": 5126,
      "count": 65532,
      "max": [
        0.99999713897705078,
        0.99995028972625732,
        0.99969452619552612
      ],
      "min": [
        -0.99968236684799194,
        -0.99999862909317017,
        -0.99998873472213745
      ],
      "type": "VEC3"
    },
    {
      "bufferView": 1,
      "byteOffset": 1048512,
      "componentType": 5126,
      "count": 65532,
      "max": [
        0.99373000860214233,
        0.99265998601913452
      ],
      "min": [
        0.0026400000788271427,
        0.0020099999383091927
      ],
      "type": "VEC2"
    },
    {
      "bufferView": 0,
      "byteOffset": 2472192,
      "componentType": 5125,
      "count": 310146,
      "max": [
        65531
      ],
      "min": [
        0
      ],
      "type": "SCALAR"
    },
    {
      "bufferView": 2,
      "byteOffset": 4718304,
      "componentType": 5126,
      "count": 65532,
      "max": [
        13.089590072631836,
        -248.49462890625,
        136.868896484375
      ],
      "min": [
        -97.521430969238281,
        -360.26397705078125,
        6.4231891632080078
      ],
      "type": "VEC3"
    },
    {
      "bufferView": 2,
      "byteOffset": 5504688,
      "componentType": 5126,
      "count": 65532,
      "max": [
        0.99997860193252563,
        0.99990469217300415,
        0.99998486042022705
      ],
      "min": [
        -0.99999046325683594,
        -0.99999862909317017,
        -0.99999922513961792
      ],
      "type": "VEC3"
    },
    {
      "bufferView": 1,
      "byteOffset": 1572768,
      "componentType": 5126,
      "count": 65532,
      "max": [
        0.99370002746582031,
        0.99045997858047485
      ],
      "min": [
        0.0030100001022219658,
        0.0031300000846385956
      ],
      "type": "VEC2"
    },
    {
      "bufferView": 0,
      "byteOffset": 3712776,
      "componentType": 5125,
      "count": 312879,
      "max": [
        65531
      ],
      "min": [
        0
      ],
      "type": "SCALAR"
    },
    {
      "bufferView": 2,
      "byteOffset": 6291072,
      "componentType": 5126,
      "count": 65532,
      "max": [
        13.089590072631836,
        -248.35711669921875,
        136.88131713867188
      ],
      "min": [
        -97.637725830078125,
        -360.20941162109375,
        6.3499879837036133
      ],
      "type": "VEC3"
    },
    {
      "bufferView": 2,
      "byteOffset": 7077456,
      "componentType": 5126,
      "count": 65532,
      "max": [
        0.99995297193527222,
        0.99997901916503906,
        0.99993348121643066
      ],
      "min": [
        -0.99998736381530762,
        -0.9999154806137085,
        -0.9999995231628418
      ],
      "type": "VEC3"
    },
    {
      "bufferView": 1,
      "byteOffset": 2097024,
      "componentType": 5126,
      "count": 65532,
      "max": [
        0.99365997314453125,
        0.99778002500534058
      ],
      "min": [
        0.0031300000846385956,
        0.0024200000334531069
      ],
      "type": "VEC2"
    },
    {
      "bufferView": 0,
      "byteOffset": 4964292,
      "componentType": 5125,
      "count": 242193,
      "max": [
        65531
      ],
      "min": [
        0
      ],
      "type": "SCALAR"
    },
    {
      "bufferView": 2,
      "byteOffset": 7863840,
      "componentType": 5126,
      "count": 12382,
      "max": [
        13.03471565246582,
        -248.38273620605469,
        136.74171447753906
      ],
      "min": [
        -97.411941528320312,
        -360.24319458007812,
        6.3856072425842285
      ],
      "type": "VEC3"
    },
    {
      "bufferView": 2,
      "byteOffset": 8012424,
      "componentType": 5126,
      "count": 12382,
      "max": [
        0.99998825788497925,
        0.99967855215072632,
        0.9999573826789856
      ],
      "min": [
        -0.99996304512023926,
        -0.99959135055541992,
        -0.9999995231628418
      ],
      "type": "VEC3"
    },
    {
      "bufferView": 1,
      "byteOffset": 2621280,
      "componentType": 5126,
      "count": 12382,
      "max": [
        0.98646998405456543,
        0.99238002300262451
      ],
      "min": [
        0.0027399999089539051,
        0.0019799999427050352
      ],
      "type": "VEC2"
    },
    {
      "bufferView": 0,
      "byteOffset": 5933064,
      "componentType": 5125,
      "count": 16734,
      "max": [
        12381
      ],
      "min": [
        0
      ],
      "type": "SCALAR"
    }
  ],
  "asset": {
    "extras": {
      "author": "Museo Nacional de Historia Natural de Chile (https://sketchfab.com/MNHNcl)",
      "license": "CC0-1.0 (http://creativecommons.org/publicdomain/zero/1.0/)",
      "source": "https://sketchfab.com/3d-models/jarro-tipo-valdivia-3d255e0877cf4fe0b06dc086df475d2a",
      "title": "Jarro tipo Valdivia."
    },
    "generator": "Sketchfab-7.80.0",
    "version": "2.0"
  },
  "bufferViews": [
    {
      "buffer": 0,
      "byteLength": 6000000,
      "byteOffset": 0,
      "name": "floatBufferViews",
      "target": 34963
    },
    {
      "buffer": 0,
      "byteLength": 2720336,
      "byteOffset": 6000000,
      "byteStride": 8,
      "name": "floatBufferViews",
      "target": 34962
    },
    {
      "buffer": 0,
      "byteLength": 8161008,
      "byteOffset": 8720336,
      "byteStride": 12,
      "name": "floatBufferViews",
      "target": 34962
    }
  ],
  "buffers": [
    {
      "byteLength": 16881344,
      "uri": "scene.bin"
    }
  ],
  "images": [
    {
      "uri": "textures/defaultMat_baseColor.jpeg"
    }
  ],
  "materials": [
    {
      "doubleSided": true,
      "emissiveFactor": [
        1,
        1,
        1
      ],
      "emissiveTexture": {
        "index": 0,
        "texCoord": 0
      },
      "name": "defaultMat",
      "pbrMetallicRoughness": {
        "baseColorFactor": [
          1,
          1,
          1,
          1
        ],
        "baseColorTexture": {
          "index": 0,
          "texCoord": 0
        },
        "metallicFactor": 0,
        "roughnessFactor": 1
      }
    }
  ],
  "meshes": [
    {
      "primitives": [
        {
          "attributes": {
            "NORMAL": 1,
            "POSITION": 0,
            "TEXCOORD_0": 2
          },
          "indices": 3,
          "material": 0,
          "mode": 4
        }
      ]
    },
    {
      "primitives": [
        {
          "attributes": {
            "NORMAL": 5,
            "POSITION": 4,
            "TEXCOORD_0": 6
          },
          "indices": 7,
          "material": 0,
          "mode": 4
        }
      ]
    },
    {
      "primitives": [
        {
          "attributes": {
            "NORMAL": 9,
            "POSITION": 8,
            "TEXCOORD_0": 10
          },
          "indices": 11,
          "material": 0,
          "mode": 4
        }
      ]
    },
    {
      "primitives": [
        {
          "attributes": {
            "NORMAL": 13,
            "POSITION": 12,
            "TEXCOORD_0": 14
          },
          "indices": 15,
          "material": 0,
          "mode": 4
        }
      ]
    },
    {
      "primitives": [
        {
          "attributes": {
            "NORMAL": 17,
            "POSITION": 16,
            "TEXCOORD_0": 18
          },
          "indices": 19,
          "material": 0,
          "mode": 4
        }
      ]
    },
    {
      "primitives": [
        {
          "attributes": {
            "NORMAL": 21,
            "POSITION": 20,
            "TEXCOORD_0": 22
          },
          "indices": 23,
          "material": 0,
          "mode": 4
        }
      ]
    }
  ],
  "nodes": [
    {
      "children": [
        1
      ],
      "name": "RootNode (gltf orientation matrix)",
      "rotation": [
        -0.70710678118654746,
        -0,
        -0,
        0.70710678118654757
      ]
    },
    {
      "children": [
        2
      ],
      "name": "RootNode (model correction matrix)"
    },
    {
      "children": [
        3,
        4,
        5,
        6,
        7,
        8
      ],
      "name": "ET54_L_MK1.OBJ.cleaner.materialmerger.gles"
    },
    {
      "mesh": 0,
      "name": ""
    },
    {
      "mesh": 1,
      "name": ""
    },
    {
      "mesh": 2,
      "name": ""
    },
    {
      "mesh": 3,
      "name": ""
    },
    {
      "mesh": 4,
      "name": ""
    },
    {
      "mesh": 5,
      "name": ""
    }
  ],
  "samplers": [
    {
      "magFilter": 9729,
      "minFilter": 9987,
      "wrapS": 10497,
      "wrapT": 10497
    }
  ],
  "scene": 0,
  "scenes": [
    {
      "name": "OSG_Scene",
      "nodes": [
        0
      ]
    }
  ],
  "textures": [
    {
      "sampler": 0,
      "source": 0
    }
  ]
}

