{
  "accessors": [
    {
      "bufferView": 2,
      "componentType": 5126,
      "count": 6913,
      "max": [
        16.490861892700195,
        15.861346244812012,
        3.5861361026763916
      ],
      "min": [
        6.8381099700927734,
        5.8992180824279785,
        -4.2331762313842773
      ],
      "type": "VEC3"
    },
    {
      "bufferView": 2,
      "byteOffset": 82956,
      "componentType": 5126,
      "count": 6913,
      "max": [
        0.99919670820236206,
        0.99929815530776978,
        0.99989897012710571
      ],
      "min": [
        -0.99988502264022827,
        -0.99963861703872681,
        -0.99987757205963135
      ],
      "type": "VEC3"
    },
    {
      "bufferView": 3,
      "componentType": 5126,
      "count": 6913,
      "max": [
        0.99999606609344482,
        0.99992853403091431,
        0.99946308135986328,
        1
      ],
      "min": [
        -0.99574381113052368,
        -0.9842376708984375,
        -0.99996495246887207,
        1
      ],
      "type": "VEC4"
    },
    {
      "bufferView": 1,
      "componentType": 5126,
      "count": 6913,
      "max": [
        0.99566000699996948,
        0.99409997463226318
      ],
      "min": [
        0.0039059999398887157,
        0.0039059999398887157
      ],
      "type": "VEC2"
    },
    {
      "bufferView": 0,
      "componentType": 5125,
      "count": 36000,
      "max": [
        6912
      ],
      "min": [
        0
      ],
      "type": "SCALAR"
    }
  ],
  "asset": {
    "extras": {
      "author": "Ministerio de Cultura Peru (https://sketchfab.com/MinisteriodeCulturaPeru)",
      "license": "CC-BY-4.0 (http://creativecommons.org/licenses/by/4.0/)",
      "source": "https://sketchfab.com/3d-models/olla-con-tapa-f846fda2f5bc48059e036b2e3d4e5ee2",
      "title": "Olla con tapa"
    },
    "generator": "Sketchfab-6.79.0",
    "version": "2.0"
  },
  "bufferViews": [
    {
      "buffer": 0,
      "byteLength": 144000,
      "byteOffset": 0,
      "name": "floatBufferViews",
      "target": 34963
    },
    {
      "buffer": 0,
      "byteLength": 55304,
      "byteOffset": 144000,
      "byteStride": 8,
      "name": "floatBufferViews",
      "target": 34962
    },
    {
      "buffer": 0,
      "byteLength": 165912,
      "byteOffset": 199304,
      "byteStride": 12,
      "name": "floatBufferViews",
      "target": 34962
    },
    {
      "buffer": 0,
      "byteLength": 110608,
      "byteOffset": 365216,
      "byteStride": 16,
      "name": "floatBufferViews",
      "target": 34962
    }
  ],
  "buffers": [
    {
      "byteLength": 475824,
      "uri": "scene.bin"
    }
  ],
  "images": [
    {
      "uri": "textures/BIEN_CP_03_emissive.jpeg"
    }
  ],
  "materials": [
    {
      "doubleSided": true,
      "emissiveFactor": [
        1,
        1,
        1
      ],
      "emissiveTexture": {
        "index": 0,
        "texCoord": 0
      },
      "name": "BIEN_CP_03",
      "pbrMetallicRoughness": {
        "baseColorFactor": [
          1,
          1,
          1,
          1
        ],
        "metallicFactor": 0,
        "roughnessFactor": 0.59999999999999998
      }
    }
  ],
  "meshes": [
    {
      "primitives": [
        {
          "attributes": {
            "NORMAL": 1,
            "POSITION": 0,
            "TANGENT": 2,
            "TEXCOORD_0": 3
          },
          "indices": 4,
          "material": 0,
          "mode": 4
        }
      ]
    }
  ],
  "nodes": [
    {
      "children": [
        1
      ],
      "name": "RootNode (gltf orientation matrix)",
      "rotation": [
        -0.70710678118654746,
        -0,
        -0,
        0.70710678118654757
      ]
    },
    {
      "children": [
        2
      ],
      "matrix": [
        0.67938566207885742,
        -0.7336047887802124,
        0.01609688438475132,
        0,
        0.72846478223800659,
        0.6769368052482605,
        0.10533608496189117,
        0,
        -0.088171631097793579,
        -0.059837814420461655,
        0.99430638551712036,
        0,
        -4.2146296501159668,
        12.05278491973877,
        -1.3356907367706299,
        1
      ],
      "name": "RootNode (model correction matrix)"
    },
    {
      "children": [
        3
      ],
      "name": "BIEN_CP_03.obj.cleaner.materialmerger.gles"
    },
    {
      "mesh": 0,
      "name": ""
    }
  ],
  "samplers": [
    {
      "magFilter": 9729,
      "minFilter": 9987,
      "wrapS": 10497,
      "wrapT": 10497
    }
  ],
  "scene": 0,
  "scenes": [
    {
      "name": "OSG_Scene",
      "nodes": [
        0
      ]
    }
  ],
  "textures": [
    {
      "sampler": 0,
      "source": 0
    }
  ]
}

