{
  "accessors": [
    {
      "bufferView": 2,
      "componentType": 5126,
      "count": 54402,
      "max": [
        5.1314730644226074,
        1.0800549983978271,
        1.4585030078887939
      ],
      "min": [
        -4.303563117980957,
        -6.6359081268310547,
        -5.957636833190918
      ],
      "type": "VEC3"
    },
    {
      "bufferView": 2,
      "byteOffset": 652824,
      "componentType": 5126,
      "count": 54402,
      "max": [
        0.99998998641967773,
        0.99999725818634033,
        0.9999585747718811
      ],
      "min": [
        -0.99997872114181519,
        -0.99997955560684204,
        -0.99997431039810181
      ],
      "type": "VEC3"
    },
    {
      "bufferView": 3,
      "componentType": 5126,
      "count": 54402,
      "max": [
        0.63529413938522339,
        0.64313727617263794,
        0.65098041296005249,
        1
      ],
      "min": [
        0.019607843831181526,
        0.019607843831181526,
        0.011764706112444401,
        1
      ],
      "type": "VEC4"
    },
    {
      "bufferView": 1,
      "componentType": 5126,
      "count": 54402,
      "max": [
        0.9726639986038208,
        1
      ],
      "min": [
        0.00038199999835342169,
        0
      ],
      "type": "VEC2"
    },
    {
      "bufferView": 0,
      "componentType": 5125,
      "count": 299880,
      "max": [
        54401
      ],
      "min": [
        0
      ],
      "type": "SCALAR"
    }
  ],
  "asset": {
    "extras": {
      "author": "Ministerio de Cultura Peru (https://sketchfab.com/MinisteriodeCulturaPeru)",
      "license": "CC-BY-NC-4.0 (http://creativecommons.org/licenses/by-nc/4.0/)",
      "source": "https://sketchfab.com/3d-models/ce-0821-olla-3059be21df5b4b40a9227c3f94511c56",
      "title": "CE 0821 - OLLA"
    },
    "generator": "Sketchfab-9.69.0",
    "version": "2.0"
  },
  "bufferViews": [
    {
      "buffer": 0,
      "byteLength": 1199520,
      "byteOffset": 0,
      "name": "floatBufferViews",
      "target": 34963
    },
    {
      "buffer": 0,
      "byteLength": 435216,
      "byteOffset": 1199520,
      "byteStride": 8,
      "name": "floatBufferViews",
      "target": 34962
    },
    {
      "buffer": 0,
      "byteLength": 1305648,
      "byteOffset": 1634736,
      "byteStride": 12,
      "name": "floatBufferViews",
      "target": 34962
    },
    {
      "buffer": 0,
      "byteLength": 870432,
      "byteOffset": 2940384,
      "byteStride": 16,
      "name": "floatBufferViews",
      "target": 34962
    }
  ],
  "buffers": [
    {
      "byteLength": 3810816,
      "uri": "scene.bin"
    }
  ],
  "extensionsUsed": [
    "KHR_materials_unlit"
  ],
  "materials": [
    {
      "doubleSided": true,
      "emissiveFactor": [
        0,
        0,
        0
      ],
      "extensions": {
        "KHR_materials_unlit": {}
      },
      "name": "CE_0821",
      "pbrMetallicRoughness": {
        "baseColorFactor": [
          1,
          1,
          1,
          1
        ],
        "metallicFactor": 0,
        "roughnessFactor": 1
      }
    }
  ],
  "meshes": [
    {
      "primitives": [
        {
          "attributes": {
            "COLOR_0": 2,
            "NORMAL": 1,
            "POSITION": 0,
            "TEXCOORD_0": 3
          },
          "indices": 4,
          "material": 0,
          "mode": 4
        }
      ]
    }
  ],
  "nodes": [
    {
      "children": [
        1
      ],
      "name": "RootNode (gltf orientation matrix)",
      "rotation": [
        -0.70710678118654746,
        -0,
        -0,
        0.70710678118654757
      ]
    },
    {
      "children": [
        2
      ],
      "matrix": [
        0.050665104209256517,
        -0.00023144754505492054,
        -0.0027108056159209221,
        0,
        -0.0013495485671514984,
        0.041758340044851794,
        -0.0287884460245591,
        0,
        0.0023623619968309029,
        0.028819132850091966,
        0.041692106461921341,
        0,
        0.031446885317564011,
        0.78799080848693848,
        -1.9551279544830322,
        1
      ],
      "name": "RootNode (model correction matrix)"
    },
    {
      "children": [
        3
      ],
      "name": "CE 0821.obj.cleaner.materialmerger.gles"
    },
    {
      "mesh": 0,
      "name": ""
    }
  ],
  "scene": 0,
  "scenes": [
    {
      "name": "OSG_Scene",
      "nodes": [
        0
      ]
    }
  ]
}

