{
  "accessors": [
    {
      "bufferView": 2,
      "componentType": 5126,
      "count": 14105,
      "max": [
        5.4560999870300293,
        5.4560999870300293,
        11.017970085144043
      ],
      "min": [
        -5.4560999870300293,
        -5.4560999870300293,
        0.0049200002104043961
      ],
      "type": "VEC3"
    },
    {
      "bufferView": 2,
      "byteOffset": 169260,
      "componentType": 5126,
      "count": 14105,
      "max": [
        1,
        1,
        0.99999719858169556
      ],
      "min": [
        -1,
        -1,
        -0.99985629320144653
      ],
      "type": "VEC3"
    },
    {
      "bufferView": 3,
      "componentType": 5126,
      "count": 14105,
      "max": [
        1,
        1,
        0.024842530488967896,
        1
      ],
      "min": [
        -1,
        -1,
        -0.024842839688062668,
        -1
      ],
      "type": "VEC4"
    },
    {
      "bufferView": 1,
      "componentType": 5126,
      "count": 14105,
      "max": [
        1,
        11.024189949035645
      ],
      "min": [
        0,
        -0.0006399999838322401
      ],
      "type": "VEC2"
    },
    {
      "bufferView": 0,
      "componentType": 5125,
      "count": 82944,
      "max": [
        14104
      ],
      "min": [
        0
      ],
      "type": "SCALAR"
    }
  ],
  "asset": {
    "extras": {
      "author": "El_Legado_de_la_Antiguedad (https://sketchfab.com/El_Legado_de_la_Antiguedad)",
      "license": "CC-BY-4.0 (http://creativecommons.org/licenses/by/4.0/)",
      "source": "https://sketchfab.com/models/4ffc26d70f9e4d948e6fad3ab21651e5",
      "title": "Olla ovoide Tipo IX.A1"
    },
    "generator": "Sketchfab-3.37.3",
    "version": "2.0"
  },
  "bufferViews": [
    {
      "buffer": 0,
      "byteLength": 331776,
      "byteOffset": 0,
      "name": "floatBufferViews",
      "target": 34963
    },
    {
      "buffer": 0,
      "byteLength": 112840,
      "byteOffset": 331776,
      "byteStride": 8,
      "name": "floatBufferViews",
      "target": 34962
    },
    {
      "buffer": 0,
      "byteLength": 338520,
      "byteOffset": 444616,
      "byteStride": 12,
      "name": "floatBufferViews",
      "target": 34962
    },
    {
      "buffer": 0,
      "byteLength": 225680,
      "byteOffset": 783136,
      "byteStride": 16,
      "name": "floatBufferViews",
      "target": 34962
    }
  ],
  "buffers": [
    {
      "byteLength": 1008816,
      "uri": "scene.bin"
    }
  ],
  "images": [
    {
      "uri": "textures/Ceramica_olla_IX_baseColor.png"
    }
  ],
  "materials": [
    {
      "doubleSided": true,
      "name": "Ceramica_olla_IX",
      "pbrMetallicRoughness": {
        "baseColorFactor": [
          1,
          1,
          1,
          1
        ],
        "baseColorTexture": {
          "index": 0,
          "texCoord": 0
        },
        "metallicFactor": 0,
        "roughnessFactor": 0.59999999999999998
      }
    }
  ],
  "meshes": [
    {
      "name": "Plane_0",
      "primitives": [
        {
          "attributes": {
            "NORMAL": 1,
            "POSITION": 0,
            "TANGENT": 2,
            "TEXCOORD_0": 3
          },
          "indices": 4,
          "material": 0,
          "mode": 4
        }
      ]
    }
  ],
  "nodes": [
    {
      "children": [
        1
      ],
      "name": "RootNode (gltf orientation matrix)",
      "rotation": [
        -0.70710678118654746,
        -0,
        -0,
        0.70710678118654757
      ]
    },
    {
      "children": [
        2
      ],
      "name": "RootNode (model correction matrix)"
    },
    {
      "children": [
        3,
        5
      ],
      "name": "Root"
    },
    {
      "children": [
        4
      ],
      "matrix": [
        -0.29086000000000006,
        0.95517000000000007,
        -0.05519000000000001,
        0,
        -0.77110000000000001,
        -0.19988000000000003,
        0.60452000000000006,
        0,
        0.56639000000000006,
        0.21839000000000003,
        0.7946700000000001,
        0,
        10.876600000000002,
        6.8586,
        15.473130000000001,
        1
      ],
      "name": "Lamp"
    },
    {
      "name": "Lamp"
    },
    {
      "children": [
        6
      ],
      "matrix": [
        1.0183500000000001,
        0,
        0,
        0,
        0,
        1,
        0,
        0,
        0,
        0,
        1,
        0,
        -0.002860000000000001,
        0,
        -6.3499099999999995,
        1
      ],
      "name": "Plane"
    },
    {
      "mesh": 0,
      "name": "Plane_0"
    }
  ],
  "samplers": [
    {
      "magFilter": 9729,
      "minFilter": 9987,
      "wrapS": 10497,
      "wrapT": 10497
    }
  ],
  "scene": 0,
  "scenes": [
    {
      "name": "OSG_Scene",
      "nodes": [
        0
      ]
    }
  ],
  "textures": [
    {
      "sampler": 0,
      "source": 0
    }
  ]
}

